<?xml version="1.0" standalone="no"?>
<!DOCTYPE svg PUBLIC "-//W3C//DTD SVG 20010904//EN"
 "http://www.w3.org/TR/2001/REC-SVG-20010904/DTD/svg10.dtd">
<svg version="1.0" xmlns="http://www.w3.org/2000/svg"
 width="512.000000pt" height="512.000000pt" viewBox="0 0 512.000000 512.000000"
 preserveAspectRatio="xMidYMid meet">

<g transform="translate(0.000000,512.000000) scale(0.100000,-0.100000)"
fill="#000000" stroke="none">
<path d="M2371 5110 c-626 -52 -1179 -307 -1616 -745 -407 -406 -654 -908
-731 -1485 -22 -167 -22 -473 0 -640 56 -421 194 -781 435 -1135 41 -60 90
-129 109 -153 l35 -43 43 81 c71 132 143 229 249 336 248 249 586 394 917 394
l98 0 0 199 c0 170 -2 200 -16 212 -57 47 -157 209 -205 332 l-27 72 -54 5
c-165 15 -389 282 -414 492 -8 72 9 131 54 180 95 105 245 117 340 26 l32 -32
0 115 c0 168 23 230 100 269 38 19 62 20 866 20 l827 0 44 -25 c68 -41 85 -84
91 -237 l5 -127 31 23 c55 41 94 56 148 56 131 0 248 -111 248 -235 0 -83 -59
-221 -139 -326 -94 -125 -203 -200 -290 -201 -46 0 -49 -2 -55 -30 -16 -81
-146 -306 -211 -368 l-25 -23 0 -199 0 -198 74 0 c90 0 223 -22 336 -56 335
-101 630 -348 804 -674 l43 -81 54 68 c212 268 386 623 469 953 198 788 15
1620 -495 2245 -81 99 -267 287 -360 363 -299 244 -688 432 -1065 516 -232 51
-534 74 -749 56z"/>
<path d="M2033 3346 c-104 -34 -195 -114 -241 -214 -23 -49 -27 -71 -27 -152
0 -86 3 -101 32 -162 94 -199 322 -279 520 -183 72 36 156 129 184 205 l22 60
62 0 62 0 12 -39 c30 -100 135 -209 236 -244 189 -66 392 19 478 201 28 60 32
76 32 157 -1 70 -6 103 -24 147 -31 81 -106 160 -189 200 -62 31 -74 33 -167
33 -87 0 -107 -3 -156 -26 -99 -47 -181 -140 -210 -236 l-12 -43 -63 0 c-61 0
-64 1 -70 28 -13 53 -68 144 -112 183 -74 64 -143 92 -242 96 -53 2 -101 -2
-127 -11z m201 -150 c92 -38 152 -138 143 -237 -6 -67 -23 -103 -73 -152 -117
-114 -316 -71 -380 82 -19 44 -18 132 2 179 20 49 70 100 119 123 48 22 142
25 189 5z m892 -5 c51 -23 111 -93 125 -145 28 -104 -15 -215 -105 -271 -43
-26 -59 -30 -121 -30 -62 0 -78 4 -121 30 -66 41 -106 108 -112 185 -5 73 9
115 55 170 48 55 102 80 178 80 37 0 76 -8 101 -19z"/>
<path d="M2081 3054 c-38 -32 -49 -80 -27 -122 20 -39 44 -52 93 -52 53 0 95
42 95 94 0 91 -93 137 -161 80z"/>
<path d="M2985 3071 c-49 -21 -72 -74 -55 -125 14 -42 48 -66 95 -66 125 0
138 179 14 195 -19 3 -43 1 -54 -4z"/>
<path d="M2351 2384 c-23 -30 -23 -30 -15 -62 12 -45 48 -52 252 -52 176 0
191 1 216 21 30 24 34 63 10 97 -15 22 -19 22 -229 22 l-214 0 -20 -26z"/>
</g>
</svg>
